<svg width="68" height="68" viewBox="0 0 68 68" fill="none" xmlns="http://www.w3.org/2000/svg">
<g opacity="0.7" clip-path="url(#clip0)">
<path d="M9.32258 9.4873C4.05806 9.4873 0 12.8873 0 18.8099V35.7002C0.43871 37.7841 2.63226 39.3196 5.04516 39.3196C7.7871 39.3196 9.76129 37.3454 9.76129 34.9325V26.3776H17.2194V34.8228C17.2194 39.5389 11.1871 41.9518 6.8 41.9518C4.27742 41.9518 1.86452 41.1841 0.109677 39.868V58.5131H11.9548C16.1226 58.5131 20.9484 54.5647 20.9484 49.5196V9.4873H9.32258Z" fill="#1174CE"/>
<path d="M0 18.8099V35.7002C0.43871 37.7841 2.63226 39.3196 5.04516 39.3196C7.7871 39.3196 9.76129 37.3454 9.76129 34.9325V26.3776H17.2194V34.8228C17.2194 39.5389 11.1871 41.9518 6.8 41.9518C4.27742 41.9518 1.86452 41.1841 0.109677 39.868V58.5131H11.9548C16.1226 58.5131 20.9484 54.5647 20.9484 49.5196V9.4873" fill="#0F549D"/>
<path d="M17.1097 26.377V34.8221C17.1097 39.5382 11.0774 41.9512 6.69032 41.9512C4.16774 41.9512 1.75484 41.1834 0 39.8673V58.5124H11.8452C16.0129 58.5124 20.8387 54.5641 20.8387 49.5189" fill="#02375E"/>
<path d="M50.7803 39.0999H55.9351C57.2512 39.0999 58.4577 37.8934 58.4577 36.5773C58.4577 35.2611 57.2512 34.0547 55.9351 34.0547H50.7803V39.0999Z" fill="#146643"/>
<path d="M56.5934 9.4873C51.2192 9.4873 47.2708 12.8873 47.2708 18.7002V26.3776H61.0902C63.0644 26.3776 64.7095 28.0228 64.7095 29.997C64.7095 31.9712 63.0644 33.6163 61.0902 33.6163C63.2837 33.6163 65.0386 35.1518 65.0386 37.126C65.0386 39.1002 63.3934 40.6357 61.0902 40.6357H47.1611V58.5131H59.0063C63.174 58.5131 67.9998 54.5647 67.9998 49.5196V9.4873H56.5934Z" fill="#1BCC38"/>
<path d="M47.1611 18.8099V26.3776H60.9805C62.9547 26.3776 64.5998 28.0228 64.5998 29.997C64.5998 31.9712 62.9547 33.6163 60.9805 33.6163C63.174 33.6163 64.9289 35.1518 64.9289 37.126C64.9289 39.1002 63.2837 40.6357 60.9805 40.6357H47.1611V58.5131H59.0063C63.174 58.5131 67.9998 54.5647 67.9998 49.5196V9.4873" fill="#329947"/>
<path d="M64.5998 29.9971C64.5998 31.9713 62.9547 33.6164 60.9805 33.6164C63.174 33.6164 64.9289 35.1519 64.9289 37.1261C64.9289 39.1003 63.2837 40.6358 60.9805 40.6358H47.1611V58.5132H59.0063C63.174 58.5132 67.9998 54.5648 67.9998 49.5196" fill="#146643"/>
<path d="M58.348 30.4357C58.348 29.1195 57.1416 27.9131 55.8254 27.9131H50.7803V32.8486H55.9351C57.2512 32.8486 58.348 31.7518 58.348 30.4357Z" fill="#146643"/>
<path d="M32.7933 9.4873C27.4191 9.4873 23.4707 12.8873 23.4707 18.7002V28.1325C24.7868 27.0357 26.432 26.268 28.1868 26.268H40.6901V28.9002C37.7288 28.2421 34.8772 27.9131 33.4513 27.9131C30.3804 27.9131 27.8578 30.4357 27.8578 33.5067C27.8578 36.5776 30.3804 39.1002 33.4513 39.1002C34.8772 39.1002 37.7288 38.8809 40.6901 38.2228V40.6357H28.1868C26.432 40.6357 24.6772 39.9776 23.4707 38.7712V58.5131H35.3159C39.4836 58.5131 44.3094 54.5647 44.3094 49.5196V9.4873H32.7933Z" fill="#E20E37"/>
<path d="M23.4707 18.8099V28.2421C24.7868 27.1454 26.432 26.3776 28.1868 26.3776H40.6901V29.0099C37.7288 28.3518 34.8772 28.0228 33.4513 28.0228C30.3804 28.0228 27.8578 30.5454 27.8578 33.6163C27.8578 36.6873 30.3804 39.2099 33.4513 39.2099C34.8772 39.2099 37.7288 38.9905 40.6901 38.3325V40.6357H28.1868C26.432 40.6357 24.6772 39.9776 23.4707 38.7712V58.5131H35.3159C39.4836 58.5131 44.3094 54.5647 44.3094 49.5196V9.4873" fill="#B41F36"/>
<path d="M40.6901 26.377V29.0092C37.7288 28.3511 34.8772 28.0221 33.4513 28.0221C30.3804 28.0221 27.8578 30.5447 27.8578 33.6157C27.8578 36.6866 30.3804 39.2092 33.4513 39.2092C34.8772 39.2092 37.7288 38.9899 40.6901 38.3318V40.635H28.1868C26.432 40.635 24.6772 39.977 23.4707 38.7705V58.5124H35.3159C39.4836 58.5124 44.3094 54.5641 44.3094 49.5189" fill="#720A1E"/>
</g>
<defs>
<clipPath id="clip0">
<rect width="68" height="68" fill="white"/>
</clipPath>
</defs>
</svg>
