<svg width="71" height="71" viewBox="0 0 71 71" fill="none" xmlns="http://www.w3.org/2000/svg">
<path d="M44.3576 35.4998C44.3576 47.7551 34.4297 57.6852 22.1788 57.6852C9.9279 57.6852 0 47.753 0 35.4998C0 23.2467 9.93033 13.3145 22.1788 13.3145C34.4273 13.3145 44.3576 23.2467 44.3576 35.4998Z" fill="#E2574C"/>
<path d="M48.8148 13.3145C43.8407 13.3145 39.2616 14.9717 35.5611 17.7383L35.5789 17.7405C36.3067 18.4437 37.1096 18.9387 37.7286 19.7482L33.114 19.8214C32.3908 20.5514 31.7319 21.3456 31.1107 22.171H39.2482C39.8672 22.9141 40.4395 23.5599 40.9588 24.3806H29.6354C29.2206 25.095 28.8368 25.8294 28.5018 26.5924H42.2479C42.6073 27.3533 42.929 27.9281 43.202 28.7335H27.6876C27.4414 29.499 27.2306 30.282 27.0708 31.0806H43.8519C44.0162 31.8483 44.1425 32.558 44.2291 33.2814H26.7379C26.6647 34.0114 26.627 34.7523 26.627 35.5001H44.3554C44.3554 36.2855 44.2999 37.0131 44.2201 37.7187H26.7379C26.8133 38.4708 26.9243 39.2096 27.0708 39.9374H43.8252C43.6521 40.6561 43.4524 41.3793 43.2018 42.1292H27.6365C27.8716 42.8879 28.158 43.6245 28.4706 44.3432H42.2479C41.8664 45.1508 41.4338 45.7964 40.9568 46.5529H29.5958C30.044 47.3293 30.5386 48.0702 31.0754 48.7803L39.2485 48.9022C38.5518 49.7385 37.6578 50.2422 36.8434 50.9743C36.8877 51.0099 35.5412 50.9699 32.8899 50.9279C36.9232 55.0899 42.5606 57.6855 48.8145 57.6855C61.0676 57.6855 70.9999 47.7529 70.9999 35.5001C70.9999 23.2472 61.0698 13.3145 48.8148 13.3145Z" fill="#F4B459"/>
</svg>
