<svg width="83" height="83" viewBox="0 0 83 83" fill="none" xmlns="http://www.w3.org/2000/svg">
<g opacity="0.7">
<path d="M32.5308 45.85H32.9324C33.334 45.85 33.6017 45.7162 33.7356 45.4484L34.9404 43.7081H38.0195L37.3501 44.7791H41.0985L40.563 46.5194H36.1453C35.6098 47.3226 35.0743 47.5903 34.2711 47.5903H31.9953L32.5308 45.85ZM31.9953 48.2597H40.0275L39.4921 50.1339H36.2792L35.7437 52.0081H38.9566L38.4211 53.8823H35.2082L34.405 56.5597C34.2711 56.9613 34.405 57.2291 35.0743 57.0952H37.6179L37.0824 58.8355H32.1292C31.1921 58.8355 30.9243 58.3 31.1921 57.2291L32.1292 53.7484H30.1211L30.6566 51.8742H32.6646L33.2001 50H31.3259L31.9953 48.2597ZM44.9808 43.7081L44.8469 44.7791C44.8469 44.7791 46.3195 43.5742 47.7921 43.5742H52.8792L50.8711 50.8033C50.7372 51.6065 50.0679 52.0081 48.7292 52.0081H42.9727L41.634 56.9613C41.5001 57.2291 41.634 57.3629 41.9017 57.3629H43.1066L42.705 58.8355H39.7598C38.6888 58.8355 38.1534 58.5678 38.4211 57.7645L42.3034 43.5742H44.9808V43.7081ZM49.2646 45.7162H44.713L44.1775 47.5903C44.1775 47.5903 44.9808 47.0549 46.1856 47.0549C47.3904 47.0549 48.863 47.0549 48.863 47.0549L49.2646 45.7162ZM47.6582 50.1339C48.0598 50.1339 48.1937 50 48.1937 49.7323L48.4614 48.6613H43.9098L43.5082 50.1339H47.6582ZM44.5792 52.4097H47.2566V53.6145H47.9259C48.3275 53.6145 48.4614 53.4807 48.4614 53.2129L48.7292 52.4097H50.8711L50.6033 53.4807C50.3356 54.4178 49.6663 54.8194 48.5953 54.9532H47.1227V56.9613C47.1227 57.2291 47.3904 57.4968 47.9259 57.4968H49.2646L48.863 59.1032H45.6501C44.713 59.1032 44.3114 58.7016 44.3114 57.7645L44.5792 52.4097Z" fill="#009DA5"/>
<path d="M35.6094 47.1895C35.7433 47.0557 36.011 46.7879 36.1449 46.6541H40.5626L41.0981 44.9137H37.3497L38.0191 43.8428H34.94L33.7352 45.4492C33.6013 45.717 33.3336 45.8508 32.932 45.8508H32.5304L32.3965 46.2525C33.4675 46.5202 34.5384 46.9218 35.6094 47.1895Z" fill="#02CCCC"/>
<path d="M44.846 44.7799L44.9799 43.709H42.3025L41.0977 47.9928C41.767 47.9928 42.5702 48.1267 43.2396 48.1267C46.3186 48.1267 49.1299 47.7251 51.9412 46.9219L52.8783 43.709H47.7912C46.3186 43.709 44.846 44.7799 44.846 44.7799ZM48.8622 47.0558C48.8622 47.0558 47.3896 47.0558 46.1848 47.0558C44.846 47.0558 44.1767 47.5912 44.1767 47.5912L44.7122 45.717H49.2638L48.8622 47.0558Z" fill="#02CCCC"/>
<path d="M55.6906 45.85L56.36 43.7081H59.439L59.3051 44.5113C59.3051 44.5113 60.9116 43.7081 61.9825 43.7081C63.0535 43.7081 65.8648 43.7081 65.8648 43.7081L65.1954 45.85H64.66L61.7148 56.0242H62.2503L61.7148 58.0323H61.0454L60.7777 58.9694H57.8325L58.1003 58.0323H52.21L52.7454 56.0242H53.2809L56.2261 45.85H55.6906ZM59.0374 45.85L58.2342 48.6613C58.2342 48.6613 59.5729 48.1258 60.7777 47.992C61.0454 47.0549 61.3132 45.85 61.3132 45.85H59.0374ZM57.9664 50L57.1632 52.9452C57.1632 52.9452 58.6358 52.2758 59.7067 52.142C59.9745 51.071 60.2422 50 60.2422 50H57.9664ZM58.5019 56.0242L59.0374 53.8823H56.7616L56.2261 56.0242H58.5019ZM65.9987 43.5742H68.9438L69.0777 44.6452C69.0777 44.9129 69.2116 45.0468 69.6132 45.0468H70.1487L69.6132 46.921H67.4713C66.668 46.921 66.2664 46.6533 66.1325 45.9839L65.9987 43.5742ZM65.1954 47.5903H74.5664L74.0309 49.4645H71.0858L70.5503 51.3387H73.4954L72.96 53.3468H69.6132L68.81 54.5516H70.4164L70.818 56.8275C70.818 57.0952 71.0858 57.2291 71.3535 57.2291H71.889L71.3535 59.1033H69.6132C68.6761 59.1033 68.1406 58.8355 68.1406 58.1662L67.739 56.0242L66.2664 58.3C65.8648 58.9694 65.3293 59.2371 64.66 59.2371H61.8487L62.3842 57.3629H63.1874C63.589 57.3629 63.8567 57.2291 64.1245 56.8275L66.4003 53.4807H63.4551L63.9906 51.4726H67.2035L67.739 49.5984H64.5261L65.1954 47.5903Z" fill="#009DA5"/>
<path d="M59.4387 43.8428H56.3597L55.8242 45.5831C57.0291 45.0476 58.2339 44.5121 59.4387 43.8428Z" fill="#02CCCC"/>
<path d="M12.45 34.2037C12.0484 35.944 11.2452 37.2827 10.0403 38.2198C8.70161 39.1569 7.09516 39.6924 5.0871 39.6924C3.2129 39.6924 1.74032 39.1569 0.937097 38.2198C0.267742 37.5504 0 36.6133 0 35.5424C0 35.1407 0 34.6053 0.133871 34.0698L2.27581 23.7617H5.48871L3.34677 33.9359C3.34677 34.2037 3.2129 34.4714 3.2129 34.7391C3.2129 35.2746 3.34677 35.6762 3.61452 36.0778C4.01613 36.6133 4.68548 36.8811 5.48871 36.8811C6.42581 36.8811 7.3629 36.6133 7.89839 36.2117C8.56774 35.6762 8.96935 35.0069 9.10322 34.0698L11.2452 23.8956H14.7258L12.45 34.2037Z" fill="#FF7F29"/>
<path d="M12.45 34.2037C12.0484 35.944 11.2452 37.2827 10.0403 38.2198C8.70161 39.1569 7.09516 39.6924 5.0871 39.6924C3.2129 39.6924 1.74032 39.1569 0.937097 38.2198C0.267742 37.5504 0 36.6133 0 35.5424C0 35.1407 0 34.6053 0.133871 34.0698L4.81935 23.7617H5.48871L3.34677 33.9359C3.34677 34.2037 3.2129 34.4714 3.2129 34.7391C3.2129 35.2746 3.34677 35.6762 3.61452 36.0778C4.01613 36.6133 4.68548 36.8811 5.48871 36.8811C6.42581 36.8811 7.3629 36.6133 7.89839 36.2117C8.56774 35.6762 8.96935 35.0069 9.10322 34.0698L13.7887 23.8956H14.7258L12.45 34.2037Z" fill="#EA2227"/>
<path d="M15.5286 30.1877H17.8044L17.5366 31.5264L17.8044 31.1248C18.6076 30.3215 19.4108 29.9199 20.4818 29.9199C21.4189 29.9199 22.0882 30.1877 22.6237 30.7231C23.0253 31.2586 23.1592 32.0619 23.0253 32.999L21.8205 39.2909H19.4108L20.4818 33.5344C20.6157 32.999 20.6157 32.4635 20.3479 32.1957C20.2141 31.928 19.8124 31.7941 19.277 31.7941C18.6076 31.7941 18.206 31.928 17.8044 32.3296C17.4028 32.7312 17.135 33.2667 17.0012 33.9361L15.9302 39.2909H13.5205L15.5286 30.1877Z" fill="#EA2227"/>
<path d="M41.7678 30.1877H44.0436L43.7758 31.5264L44.0436 31.1248C44.8468 30.3215 45.65 29.9199 46.721 29.9199C47.6581 29.9199 48.3274 30.1877 48.8629 30.7231C49.2645 31.2586 49.3984 32.0619 49.2645 32.999L48.0597 39.2909H45.65L46.8548 33.5344C46.9887 32.999 46.9887 32.4635 46.721 32.1957C46.5871 31.928 46.1855 31.7941 45.65 31.7941C44.9807 31.7941 44.579 31.928 44.1774 32.3296C43.7758 32.7312 43.5081 33.2667 43.3742 33.9361L42.3032 39.2909H39.8936L41.7678 30.1877Z" fill="#A5002F"/>
<path d="M26.1047 30.1876H28.6483L26.6402 39.4247H24.0967L26.1047 30.1876ZM26.908 26.8408H29.4515L28.916 29.1166H26.3725L26.908 26.8408Z" fill="#EA2227"/>
<path d="M30.9234 38.7554C30.2541 38.0861 29.9863 37.2828 29.9863 36.2119C29.9863 36.078 29.9863 35.8102 29.9863 35.5425C29.9863 35.2748 29.9863 35.1409 30.1202 34.8731C30.3879 33.4006 31.0573 32.1957 31.9944 31.2586C32.9315 30.3215 34.1363 29.9199 35.6089 29.9199C36.8137 29.9199 37.617 30.1877 38.2863 30.857C38.9557 31.5264 39.2234 32.3296 39.2234 33.5344C39.2234 33.6683 39.2234 33.9361 39.2234 34.2038C39.2234 34.4715 39.2234 34.6054 39.0896 34.8731C38.8218 36.3457 38.1525 37.5506 37.2154 38.3538C36.2783 39.157 35.0734 39.6925 33.6008 39.6925C32.5299 39.6925 31.5928 39.2909 30.9234 38.7554ZM35.7428 36.8812C36.1444 36.3457 36.546 35.6764 36.6799 34.7393C36.6799 34.6054 36.6799 34.4715 36.8137 34.2038C36.8137 34.0699 36.8137 33.9361 36.8137 33.8022C36.8137 33.2667 36.6799 32.7312 36.4121 32.4635C36.1444 32.1957 35.7428 31.928 35.2073 31.928C34.5379 31.928 33.8686 32.1957 33.467 32.7312C33.0654 33.2667 32.6637 33.9361 32.5299 35.007C32.5299 35.1409 32.5299 35.2748 32.396 35.4086C32.396 35.5425 32.396 35.6764 32.396 35.8102C32.396 36.3457 32.5299 36.8812 32.7976 37.149C33.0654 37.4167 33.467 37.5506 34.0025 37.5506C34.8057 37.5506 35.3412 37.4167 35.7428 36.8812Z" fill="#EA2227"/>
<path d="M53.1463 24.4316H59.8399C61.1786 24.4316 62.1157 24.6994 62.785 25.2349C63.4544 25.7704 63.856 26.5736 63.856 27.7784C63.856 28.0462 63.856 28.18 63.856 28.4478C63.856 28.7155 63.7221 28.9833 63.7221 29.251C63.4544 30.7236 62.785 31.7945 61.7141 32.7316C60.6431 33.5349 59.4383 34.0704 57.9657 34.0704H54.3512L53.2802 39.4252H50.2012L53.1463 24.4316ZM54.7528 31.3929H57.6979C58.5012 31.3929 59.0367 31.2591 59.5721 30.8574C59.9738 30.4558 60.2415 29.9204 60.5092 29.251C60.5092 29.1171 60.5092 28.9833 60.5092 28.8494C60.5092 28.7155 60.5092 28.5816 60.5092 28.5816C60.5092 28.0462 60.3754 27.6445 59.9738 27.3768C59.5721 27.1091 59.0367 26.9752 58.2334 26.9752H55.6899L54.7528 31.3929Z" fill="#1398E2"/>
<path d="M55.69 24.4316H59.7061C61.0448 24.4316 61.9819 24.6994 62.6513 25.2349C63.3206 25.7704 63.7222 26.5736 63.7222 27.7784C63.7222 28.0462 63.7222 28.18 63.7222 28.4478C63.7222 28.7155 63.5884 28.9833 63.5884 29.251C63.3206 30.7236 62.6513 31.7945 61.5803 32.7316C60.5093 33.5349 59.3045 34.0704 57.8319 34.0704H54.2174L53.1464 39.4252H50.0674L55.69 24.4316ZM54.7529 31.3929H57.698C58.5013 31.3929 59.0367 31.2591 59.5722 30.8574C59.9738 30.4558 60.2416 29.9204 60.5093 29.251C60.5093 29.1171 60.5093 28.9833 60.5093 28.8494C60.5093 28.7155 60.5093 28.5816 60.5093 28.5816C60.5093 28.0462 60.3755 27.6445 59.9738 27.3768C59.5722 27.1091 59.0367 26.9752 58.2335 26.9752H55.69L54.7529 31.3929Z" fill="#0872B9"/>
<path d="M77.5109 41.1649C76.5738 43.3069 75.6367 44.5117 75.1012 45.0472C74.5658 45.5827 73.4948 46.9214 70.8174 46.7875L71.0851 45.1811C73.2271 44.5117 74.4319 41.4327 75.1012 40.094L74.298 30.1875H76.0383H77.5109L77.6448 36.4794L80.3222 30.1875H82.9996L77.5109 41.1649Z" fill="#055093"/>
<path d="M70.0138 30.8577L68.9429 31.6609C67.8719 30.7238 66.8009 30.1883 64.7929 31.1254C62.1155 32.3302 59.8396 41.9689 67.2026 38.756L67.6042 39.2915L70.5493 39.4254L72.4235 30.7238L70.0138 30.8577ZM68.2735 35.677C67.738 37.0157 66.8009 37.9528 65.9977 37.6851C65.1945 37.4173 64.9267 36.0786 65.3284 34.7399C65.8638 33.4012 66.8009 32.4641 67.6042 32.7319C68.5413 32.9996 68.809 34.3383 68.2735 35.677Z" fill="#0872B9"/>
<path d="M65.1953 39.4252C65.7308 39.2913 66.4002 39.1574 67.2034 38.8897L67.605 39.4252L70.5502 39.559L72.4243 30.8574H71.755C70.4163 34.2042 68.0066 37.1494 65.1953 39.4252Z" fill="#055093"/>
<path d="M38.2872 30.857C37.6179 30.1877 36.6808 29.9199 35.6098 29.9199C35.3421 29.9199 35.2082 29.9199 34.9404 29.9199C34.6727 30.7231 34.2711 31.5264 33.8695 32.3296C34.2711 32.0619 34.6727 31.928 35.2082 31.928C35.7437 31.928 36.1453 32.0619 36.413 32.4635C36.6808 32.7312 36.8146 33.2667 36.8146 33.8022C36.8146 33.936 36.8146 34.0699 36.8146 34.2038C36.8146 34.3377 36.8146 34.4715 36.6808 34.7393C36.5469 35.6764 36.1453 36.4796 35.7437 36.8812C35.3421 37.4167 34.6727 37.5506 34.0033 37.5506C33.4679 37.5506 33.0663 37.4167 32.7985 37.149C32.5308 36.8812 32.3969 36.3457 32.3969 35.8102C32.3969 35.6764 32.3969 35.5425 32.3969 35.4086C32.3969 35.2748 32.3969 35.1409 32.5308 35.007C32.5308 34.7393 32.6646 34.6054 32.6646 34.4715C31.9953 35.5425 31.0582 36.6135 30.1211 37.5506C30.255 38.086 30.5227 38.4877 30.9243 38.8893C31.5937 39.5586 32.5308 39.8264 33.6017 39.8264C34.9404 39.8264 36.1453 39.4248 37.2163 38.4877C38.1533 37.6844 38.8227 36.4796 39.0904 35.007C39.0904 34.7393 39.2243 34.6054 39.2243 34.3377C39.2243 34.0699 39.2243 33.936 39.2243 33.6683C39.2243 32.3296 38.9566 31.5264 38.2872 30.857Z" fill="#A5002F"/>
</g>
</svg>
