<svg width="83" height="83" viewBox="0 0 83 83" fill="none" xmlns="http://www.w3.org/2000/svg">
<g opacity="0.7" clip-path="url(#clip0)">
<path d="M30.4336 53.4233L34.6495 29.709H41.2368L37.1526 53.4233H30.4336Z" fill="#3C58BF"/>
<path d="M30.4336 53.4233L35.8352 29.709H41.2368L37.1526 53.4233H30.4336Z" fill="#293688"/>
<path d="M60.998 29.9729C59.6805 29.4459 57.5726 28.9189 54.9376 28.9189C48.3503 28.9189 43.6075 32.2126 43.6075 36.9555C43.6075 40.5126 46.9011 42.357 49.5361 43.5428C52.171 44.7285 52.9615 45.5189 52.9615 46.5729C52.9615 48.1539 50.8535 48.9443 49.0091 48.9443C46.3742 48.9443 44.9249 48.5491 42.6853 47.6269L41.763 47.2316L40.8408 52.6332C42.4218 53.292 45.3202 53.9507 48.3503 53.9507C55.3329 53.9507 59.944 50.657 59.944 45.6507C59.944 42.884 58.2313 40.7761 54.2789 39.0634C51.9075 37.8777 50.4583 37.2189 50.4583 36.0332C50.4583 34.9793 51.644 33.9253 54.2789 33.9253C56.5186 33.9253 58.0996 34.3205 59.2853 34.8475L59.944 35.111L60.998 29.9729Z" fill="#3C58BF"/>
<path d="M60.998 29.9729C59.6805 29.4459 57.5726 28.9189 54.9376 28.9189C48.3503 28.9189 44.7932 32.2126 44.7932 36.9555C44.7932 40.5126 46.9011 42.357 49.5361 43.5428C52.171 44.7285 52.9615 45.5189 52.9615 46.5729C52.9615 48.1539 50.8535 48.9443 49.0091 48.9443C46.3742 48.9443 44.9249 48.5491 42.6853 47.6269L41.763 47.2316L40.8408 52.6332C42.4218 53.292 45.3202 53.9507 48.3503 53.9507C55.3329 53.9507 59.944 50.657 59.944 45.6507C59.944 42.884 58.2313 40.7761 54.2789 39.0634C51.9075 37.8777 50.4583 37.2189 50.4583 36.0332C50.4583 34.9793 51.644 33.9253 54.2789 33.9253C56.5186 33.9253 58.0996 34.3205 59.2853 34.8475L59.944 35.111L60.998 29.9729Z" fill="#293688"/>
<path d="M72.3288 29.709C70.7479 29.709 69.5621 29.8407 68.9034 31.4217L59.0225 53.4233H66.1367L67.4542 49.4709H75.886L76.6764 53.4233H83.0002L77.4669 29.709H72.3288ZM69.2986 45.5185C69.6939 44.3328 71.9336 38.536 71.9336 38.536C71.9336 38.536 72.4606 37.0868 72.8558 36.1645L73.251 38.4042C73.251 38.4042 74.5685 44.3328 74.832 45.6503H69.2986V45.5185Z" fill="#3C58BF"/>
<path d="M73.9098 29.709C72.3288 29.709 71.1431 29.8407 70.4844 31.4217L59.0225 53.4233H66.1367L67.4542 49.4709H75.886L76.6764 53.4233H83.0002L77.4669 29.709H73.9098ZM69.2986 45.5185C69.8256 44.201 71.9336 38.536 71.9336 38.536C71.9336 38.536 72.4606 37.0868 72.8558 36.1645L73.251 38.4042C73.251 38.4042 74.5685 44.3328 74.832 45.6503H69.2986V45.5185Z" fill="#293688"/>
<path d="M18.3126 46.3081L17.6539 42.8827C16.4681 38.9303 12.6475 34.5827 8.43164 32.4748L14.3602 53.5541H21.4745L32.1459 29.8398H25.0316L18.3126 46.3081Z" fill="#3C58BF"/>
<path d="M18.3126 46.3081L17.6539 42.8827C16.4681 38.9303 12.6475 34.5827 8.43164 32.4748L14.3602 53.5541H21.4745L32.1459 29.8398H26.3491L18.3126 46.3081Z" fill="#293688"/>
<path d="M0 29.709L1.18571 29.9725C9.61746 31.9487 15.4143 36.955 17.654 42.8836L15.2825 31.6852C14.8873 30.1042 13.7016 29.709 12.2524 29.709H0Z" fill="#FFBC00"/>
<path d="M0 29.709C8.43175 31.6852 15.4143 36.8233 17.654 42.7518L15.4143 33.3979C15.019 31.8169 13.7016 30.8947 12.2524 30.8947L0 29.709Z" fill="#F7981D"/>
<path d="M0 29.709C8.43175 31.6852 15.4143 36.8233 17.654 42.7518L16.073 37.6137C15.6778 36.0328 15.1508 34.4518 13.3063 33.7931L0 29.709Z" fill="#ED7C00"/>
<path d="M24.9 45.5184L20.4206 41.039L18.3127 46.0453L17.7857 42.7517C16.6 38.7993 12.7794 34.4517 8.56348 32.3438L14.492 53.4231H21.6063L24.9 45.5184Z" fill="#051244"/>
<path d="M37.1526 53.4228L31.4876 47.626L30.4336 53.4228H37.1526Z" fill="#051244"/>
<path d="M52.3027 45.2549C52.8297 45.7819 53.0932 46.1771 52.9615 46.7041C52.9615 48.285 50.8535 49.0755 49.0091 49.0755C46.3742 49.0755 44.9249 48.6803 42.6853 47.7581L41.763 47.3628L40.8408 52.7644C42.4218 53.4231 45.3202 54.0819 48.3503 54.0819C52.5662 54.0819 55.9916 52.8962 57.9678 50.7882L52.3027 45.2549Z" fill="#051244"/>
<path d="M59.9443 53.4228H66.1364L67.4539 49.4704H75.8856L76.6761 53.4228H82.9999L80.7602 43.8053L72.8554 36.1641L73.2507 38.272C73.2507 38.272 74.5681 44.2006 74.8316 45.518H69.2983C69.8253 44.2006 71.9332 38.5355 71.9332 38.5355C71.9332 38.5355 72.4602 37.0863 72.8554 36.1641" fill="#051244"/>
</g>
<defs>
<clipPath id="clip0">
<rect width="83" height="83" fill="white"/>
</clipPath>
</defs>
</svg>
