<svg width="47" height="47" viewBox="0 0 47 47" fill="none" xmlns="http://www.w3.org/2000/svg">
<path d="M44.1247 21.2085H25.7913V2.87516C25.7913 2.26737 25.5499 1.68448 25.1201 1.25471C24.6904 0.824939 24.1075 0.583496 23.4997 0.583496C22.8919 0.583496 22.309 0.824939 21.8792 1.25471C21.4495 1.68448 21.208 2.26737 21.208 2.87516V21.2085H2.87467C2.26689 21.2085 1.68399 21.4499 1.25422 21.8797C0.824451 22.3095 0.583008 22.8924 0.583008 23.5002C0.583008 24.1079 0.824451 24.6908 1.25422 25.1206C1.68399 25.5504 2.26689 25.7918 2.87467 25.7918H21.208V44.1252C21.208 44.7329 21.4495 45.3158 21.8792 45.7456C22.309 46.1754 22.8919 46.4168 23.4997 46.4168C24.1075 46.4168 24.6904 46.1754 25.1201 45.7456C25.5499 45.3158 25.7913 44.7329 25.7913 44.1252V25.7918H44.1247C44.7325 25.7918 45.3154 25.5504 45.7451 25.1206C46.1749 24.6908 46.4163 24.1079 46.4163 23.5002C46.4163 22.8924 46.1749 22.3095 45.7451 21.8797C45.3154 21.4499 44.7325 21.2085 44.1247 21.2085Z" fill="white"/>
</svg>
