<svg width="40" height="39" viewBox="0 0 40 39" fill="none" xmlns="http://www.w3.org/2000/svg">
<path d="M10.0002 17.0625V14.625H7.50022V17.0625H10.0002ZM7.50022 17.0625H5.00024V19.5H7.50022V17.0625ZM10.0002 19.5H7.50022V21.9375H10.0002V19.5ZM10.0002 21.9375V24.375H12.5002V21.9375H10.0002ZM12.5002 17.0625H10.0002V19.5H12.5002V17.0625ZM15.0002 17.0625V14.625H12.5002V17.0625H15.0002ZM12.5002 19.5V21.9375H15.0002V19.5H12.5002ZM15.0002 21.9375V24.375H17.5002V21.9375H15.0002ZM17.5002 19.5V17.0625H15.0002V19.5H17.5002ZM20.0001 17.0625V14.625H17.5002V17.0625H20.0001ZM17.5002 19.5V21.9375H20.0001V19.5H17.5002ZM20.0001 21.9375V24.375H22.5001V21.9375H20.0001ZM20.0001 17.0625V19.5H22.5001V17.0625H20.0001ZM25.0001 17.0625V14.625H22.5001V17.0625H25.0001ZM22.5001 19.5V21.9375H25.0001V19.5H22.5001ZM25.0001 19.5H27.5001V17.0625H25.0001V19.5ZM8.75021 31.6875C6.67867 31.6875 5.00024 33.324 5.00024 35.3438C5.00024 37.3635 6.67867 39 8.75021 39C10.8218 39 12.5002 37.3635 12.5002 35.3438C12.5002 33.324 10.8218 31.6875 8.75021 31.6875ZM8.75021 36.5625C8.4187 36.5625 8.10076 36.4341 7.86634 36.2055C7.63192 35.977 7.50022 35.667 7.50022 35.3438C7.50022 35.0205 7.63192 34.7105 7.86634 34.482C8.10076 34.2534 8.4187 34.125 8.75021 34.125C9.08173 34.125 9.39967 34.2534 9.63409 34.482C9.86851 34.7105 10.0002 35.0205 10.0002 35.3438C10.0002 35.667 9.86851 35.977 9.63409 36.2055C9.39967 36.4341 9.08173 36.5625 8.75021 36.5625ZM23.7501 31.6875C21.6786 31.6875 20.0001 33.324 20.0001 35.3438C20.0001 37.3635 21.6786 39 23.7501 39C25.8217 39 27.5001 37.3635 27.5001 35.3438C27.5001 33.324 25.8217 31.6875 23.7501 31.6875ZM23.7501 36.5625C23.4186 36.5625 23.1007 36.4341 22.8662 36.2055C22.6318 35.977 22.5001 35.667 22.5001 35.3438C22.5001 35.0205 22.6318 34.7105 22.8662 34.482C23.1007 34.2534 23.4186 34.125 23.7501 34.125C24.0816 34.125 24.3996 34.2534 24.634 34.482C24.8684 34.7105 25.0001 35.0205 25.0001 35.3438C25.0001 35.667 24.8684 35.977 24.634 36.2055C24.3996 36.4341 24.0816 36.5625 23.7501 36.5625ZM38.75 0H34.0625C33.7838 1.99261e-05 33.513 0.0909349 33.2934 0.25828C33.0737 0.425625 32.9178 0.659786 32.8504 0.923508L30.5872 9.75H2.50026C1.72995 9.75 1.00371 10.0964 0.529959 10.6878C0.0562122 11.2792 -0.112224 12.0507 0.0746495 12.7789L3.82462 27.4039C3.96005 27.9312 4.27229 28.3993 4.71176 28.7337C5.15123 29.0682 5.69272 29.2499 6.25023 29.25H26.2501C27.3976 29.25 28.3973 28.4883 28.6757 27.4039L35.0391 2.4375H38.75C39.4409 2.4375 40 1.89241 40 1.21875C40 0.545086 39.4409 0 38.75 0ZM29.3435 14.625H27.5001V17.0625H28.7248L28.1063 19.5H27.5001V21.8878L27.4876 21.9375H25.0001V24.375H26.8685L26.2501 26.8125H25.0001V24.375H22.5001V26.8125H20.0001V24.375H17.5002V26.8125H15.0002V24.375H12.5002V26.8125H10.0002V24.375H7.50022V26.8125H6.25023L5.62524 24.375H7.50022V21.9375H5.00024V19.5H4.37524L3.75025 17.0625H5.00024V14.625H3.12525L2.50026 12.1875H5.00024V14.625H7.50022V12.1875H10.0002V14.625H12.5002V12.1875H15.0002V14.625H17.5002V12.1875H20.0001V14.625H22.5001V12.1875H25.0001V14.625H27.5001V12.1875H29.9623L29.3435 14.625Z" fill="#F2F2F2"/>
</svg>
