<svg width="10" height="9" viewBox="0 0 10 9" fill="none" xmlns="http://www.w3.org/2000/svg">
<path d="M8.24413 5.63653C8.11628 5.41463 7.96853 4.88672 7.86675 4.52306C7.57896 3.49531 7.1335 1.90884 5.7938 1.33924C5.80712 1.26949 5.81541 1.19805 5.81541 1.125C5.81541 0.503719 5.30797 0 4.68211 0C4.05625 0 3.54882 0.503719 3.54882 1.125C3.54882 1.19805 3.5571 1.26949 3.57042 1.33924C2.23072 1.90891 1.78526 3.49531 1.49748 4.52306C1.39562 4.88672 1.24794 5.41463 1.12009 5.63653C0.57115 5.71451 0.148926 6.18314 0.148926 6.75C0.148926 7.37128 0.656359 7.875 1.28222 7.875H3.54882C3.54882 8.49628 4.05625 9 4.68211 9C5.30797 9 5.81541 8.49628 5.81541 7.875H8.082C8.70786 7.875 9.2153 7.37128 9.2153 6.75C9.2153 6.18314 8.79307 5.71451 8.24413 5.63653ZM8.082 7.3125H1.28222C0.969574 7.3125 0.715574 7.06036 0.715574 6.75C0.715574 6.47206 0.924171 6.23257 1.20034 6.19355C1.28573 6.1813 1.36718 6.1499 1.43852 6.10174C1.50987 6.05358 1.56922 5.98993 1.61208 5.9156C1.7626 5.65411 1.89654 5.19877 2.04373 4.6736C2.30594 3.73648 2.70217 2.32031 3.79339 1.85611C3.91199 1.80578 4.00972 1.71676 4.07041 1.60378C4.13109 1.49079 4.15108 1.36063 4.12708 1.23483C4.11987 1.19864 4.11598 1.16188 4.11546 1.125C4.11546 0.814641 4.36946 0.5625 4.68211 0.5625C4.99476 0.5625 5.24876 0.814641 5.24876 1.125C5.24876 1.15741 5.24486 1.19313 5.23714 1.2349C5.21314 1.3607 5.23313 1.49086 5.29382 1.60385C5.3545 1.71683 5.45223 1.80585 5.57083 1.85618C6.66205 2.32038 7.05828 3.73648 7.32113 4.67473C7.46775 5.19877 7.6017 5.65418 7.75221 5.9156C7.79504 5.98995 7.85439 6.05363 7.92573 6.1018C7.99708 6.14996 8.07855 6.18134 8.16395 6.19355C8.44005 6.23257 8.64865 6.47206 8.64865 6.75C8.64865 7.06036 8.39465 7.3125 8.082 7.3125Z" fill="#F2F2F2"/>
</svg>
