<svg width="16" height="16" viewBox="0 0 16 16" fill="none" xmlns="http://www.w3.org/2000/svg">
<path d="M15.6688 14.5666L11.7298 10.5564C12.6161 9.43027 13.098 8.02978 13.0957 6.5868C13.0957 3.07458 10.2991 0.227295 6.84907 0.227295C3.39918 0.227295 0.602417 3.07458 0.602417 6.5868C0.602417 10.099 3.39918 12.9463 6.84907 12.9463C8.32398 12.9463 9.6795 12.4259 10.7482 11.5555L14.6872 15.5657C14.7516 15.6314 14.8281 15.6835 14.9123 15.7191C14.9965 15.7546 15.0868 15.7728 15.1779 15.7727C15.3152 15.7727 15.4494 15.7313 15.5635 15.6537C15.6777 15.576 15.7666 15.4657 15.8192 15.3366C15.8717 15.2075 15.8855 15.0654 15.8587 14.9284C15.832 14.7913 15.7659 14.6654 15.6688 14.5666ZM6.84907 11.5331C4.16579 11.5331 1.99056 9.31855 1.99056 6.5868C1.99056 3.85504 4.16579 1.64052 6.84907 1.64052C9.53253 1.64052 11.7076 3.85504 11.7076 6.5868C11.7076 9.31855 9.53253 11.5331 6.84907 11.5331Z" fill="#F2F2F2"/>
</svg>
