<svg width="12" height="9" viewBox="0 0 12 9" fill="none" xmlns="http://www.w3.org/2000/svg">
<path d="M11.8392 7.52209V6.70358L11.3881 6.63007C11.3541 6.54332 11.3112 6.45925 11.2599 6.37881L11.5151 6.06771L10.8026 5.48898L10.4197 5.69645C10.3205 5.65463 10.217 5.61976 10.1102 5.59218L10.0197 5.22581H9.15826V3.46325C9.46571 3.39839 9.69444 3.17306 9.69444 2.90323V2.43868L8.80081 0.696746V0H1.6517V0.696746L0.758057 2.43868V2.90323C0.758057 3.17306 0.98679 3.39839 1.29424 3.46325V9H10.0197L10.11 8.63363C10.2168 8.60619 10.3203 8.57118 10.4196 8.52936L10.8024 8.73683L11.515 8.15809L11.2597 7.847C11.3112 7.76641 11.354 7.68235 11.3879 7.59574L11.8392 7.52209ZM7.77172 6.37881C7.73289 6.43948 7.70077 6.50263 7.67198 6.56692C7.5772 6.35761 7.3681 6.19126 7.09163 6.12378L5.94116 5.84359V5.5829C6.15995 5.42335 6.29862 5.19271 6.29862 4.93548V4.5C6.29862 4.01965 5.81768 3.62903 5.22625 3.62903C4.63483 3.62903 4.15388 4.01965 4.15388 4.5V4.93548C4.15388 5.19256 4.29255 5.42321 4.51134 5.5829V5.84359L3.36087 6.12392C2.98002 6.2167 2.72406 6.49611 2.72406 6.81925V7.54839H2.36661V3.46325C2.42412 3.47544 2.48329 3.48387 2.54533 3.48387C2.75984 3.48387 2.95035 3.4052 3.08152 3.28328C3.21268 3.4052 3.40319 3.48387 3.6177 3.48387C3.83221 3.48387 4.02272 3.4052 4.15388 3.28328C4.28505 3.4052 4.47556 3.48387 4.69007 3.48387C4.90458 3.48387 5.09508 3.4052 5.22625 3.28328C5.35742 3.4052 5.54793 3.48387 5.76243 3.48387C5.97694 3.48387 6.16745 3.4052 6.29862 3.28328C6.42978 3.4052 6.62029 3.48387 6.8348 3.48387C7.04931 3.48387 7.23982 3.4052 7.37098 3.28328C7.50215 3.4052 7.69266 3.48387 7.90717 3.48387C7.96921 3.48387 8.02838 3.47544 8.08589 3.46325V5.60544L7.51646 6.06786L7.77172 6.37881ZM6.29862 6.82258V7.54839H4.15388V6.82258H3.79643V7.54839H3.08152V6.81925C3.08152 6.62547 3.23502 6.45776 3.46367 6.40205L4.63928 6.11563L5.22625 6.59237L5.8134 6.11549L6.98883 6.40191C7.15988 6.44359 7.28878 6.54792 7.34288 6.67905L7.19226 6.70372V7.52223L7.35344 7.54839H6.65607V6.82258H6.29862ZM5.22625 5.51613C4.83197 5.51613 4.51134 5.25572 4.51134 4.93548V4.5C4.51134 4.17977 4.83197 3.91936 5.22625 3.91936C5.62053 3.91936 5.94116 4.17977 5.94116 4.5V4.93548C5.94116 5.25572 5.62053 5.51613 5.22625 5.51613ZM5.22625 5.80645C5.35174 5.80645 5.47165 5.78788 5.58371 5.75563V5.89151L5.22625 6.18183L4.86879 5.89151V5.75563C4.98085 5.78788 5.10076 5.80645 5.22625 5.80645ZM2.47613 0.870968L1.88025 2.32258H1.20488L1.94963 0.870968H2.47613ZM8.50287 0.870968L9.24762 2.32258H8.57225L7.97637 0.870968H8.50287ZM8.26462 2.90323C8.26462 3.06334 8.10431 3.19355 7.90717 3.19355C7.71002 3.19355 7.54971 3.06334 7.54971 2.90323V2.6129H8.26462V2.90323ZM3.26025 2.6129H3.97516V2.90323C3.97516 3.06334 3.81484 3.19355 3.6177 3.19355C3.42056 3.19355 3.26025 3.06334 3.26025 2.90323V2.6129ZM4.33261 2.6129H5.04752V2.90323C5.04752 3.06334 4.88721 3.19355 4.69007 3.19355C4.49293 3.19355 4.33261 3.06334 4.33261 2.90323V2.6129ZM5.40498 2.6129H6.11989V2.90323C6.11989 3.06334 5.95958 3.19355 5.76243 3.19355C5.56529 3.19355 5.40498 3.06334 5.40498 2.90323V2.6129ZM6.47734 2.6129H7.19226V2.90323C7.19226 3.06334 7.03194 3.19355 6.8348 3.19355C6.63766 3.19355 6.47734 3.06334 6.47734 2.90323V2.6129ZM8.19542 2.32258H7.50555L7.06318 0.870968H7.59972L8.19542 2.32258ZM6.69526 0.870968L7.14208 2.32258H6.46303L6.31415 0.870968H6.69526ZM5.95547 0.870968L6.10488 2.32258H5.40498V0.870968H5.95547ZM5.04752 2.32258H4.34815L4.49703 0.870968H5.04752V2.32258ZM3.98999 2.32258H3.31043L3.75724 0.870968H4.13852L3.98999 2.32258ZM2.94197 2.32258H2.25708L2.85278 0.870968H3.38879L2.94197 2.32258ZM2.90279 2.6129V2.90323C2.90279 3.06334 2.74248 3.19355 2.54533 3.19355C2.34819 3.19355 2.18788 3.06334 2.18788 2.90323V2.6129H2.90279ZM8.44335 3.28328C8.53647 3.3699 8.6596 3.43348 8.80081 3.46325V5.62805C8.73649 5.64853 8.67322 5.67072 8.61187 5.69645L8.44335 5.60508V3.28328ZM8.97953 3.19355C8.78239 3.19355 8.62208 3.06334 8.62208 2.90323V2.6129H9.33699V2.90323C9.33699 3.06334 9.17667 3.19355 8.97953 3.19355ZM8.44335 0.290323V0.580645H2.00915V0.290323H8.44335ZM1.11551 2.90323V2.6129H1.83042V2.90323C1.83042 3.06334 1.67011 3.19355 1.47297 3.19355C1.27583 3.19355 1.11551 3.06334 1.11551 2.90323ZM1.6517 3.46325C1.7929 3.43348 1.91603 3.3699 2.00915 3.28328V7.83871H7.76684C7.7685 7.84148 7.76989 7.84424 7.77155 7.847L7.51629 8.15809L8.19585 8.70968H1.6517V3.46325ZM8.27911 8.70968L8.61187 8.52936C8.71109 8.57118 8.81459 8.60605 8.92141 8.63363L8.94017 8.70968H8.27911ZM11.1007 7.34603L11.073 7.4347C11.0349 7.5564 10.9757 7.67236 10.8973 7.77931L10.8396 7.85785L11.0552 8.12074L10.7569 8.36301L10.4334 8.18793L10.3366 8.23472C10.2047 8.29858 10.0619 8.34663 9.91209 8.37754L9.80309 8.40008L9.72665 8.70968H9.30479L9.22851 8.40022L9.11951 8.37768C8.96967 8.34663 8.8269 8.29872 8.69503 8.23486L8.59817 8.18815L8.27466 8.36315L7.97637 8.12088L8.1921 7.85799L8.13433 7.77946C8.05587 7.6725 7.99671 7.55654 7.95866 7.43484L7.9309 7.34617L7.54971 7.28436V6.94159L7.93073 6.87978L7.95848 6.79111C7.99653 6.66941 8.0557 6.55345 8.13415 6.4465L8.19184 6.36796L7.9762 6.10507L8.27448 5.8628L8.59799 6.03787L8.69486 5.99109C8.82672 5.92723 8.9695 5.87918 9.11934 5.84827L9.22834 5.82573L9.30479 5.51613H9.72665L9.80292 5.82559L9.91192 5.84813C10.0618 5.87918 10.2045 5.92709 10.3364 5.99095L10.4333 6.03766L10.7568 5.86266L11.0551 6.10493L10.8393 6.36782L10.8971 6.44635C10.9756 6.55331 11.0347 6.66927 11.0728 6.79097L11.1005 6.87964L11.4817 6.94145V7.28422L11.1007 7.34603Z" fill="#F2F2F2"/>
</svg>
